<?xml version="1.0" encoding="utf-8"?>
<!-- Generator: Adobe Illustrator 20.1.0, SVG Export Plug-In . SVG Version: 6.00 Build 0)  -->
<svg version="1.1" id="Layer_1" xmlns="http://www.w3.org/2000/svg" xmlns:xlink="http://www.w3.org/1999/xlink" x="0px" y="0px"
	 viewBox="0 0 289.4 81.8" style="enable-background:new 0 0 289.4 81.8;" xml:space="preserve">
<g>
	<path d="M32,6.8c7,0,14,0.7,19.5,6.6c2.5,2.6,5.3,7.4,5.3,15c0,6.9-2.4,12.4-6.1,16.1c-3.2,3.1-7.6,5.2-11.7,5.9L58,80.2H38.2
		L20.5,51.3l-3.5,28.9H0L9,6.8H32z M21.8,40.2H26c2.8,0,6.9-0.3,9.9-2.6c3-2.3,3.7-5.5,3.7-8.6c0-2.3-0.5-5.3-3.5-7.1
		c-2.2-1.4-5.4-1.8-9.2-1.8h-2.5L21.8,40.2z"/>
	<path d="M116.7,37.1c3.7,3.7,6.6,9.5,6.6,16.6s-2.8,14.9-7.9,20.1c-6.9,7-15.4,8-22.6,8c-6.3,0-14.2-0.9-20.5-7.4
		c-3.9-4-6.7-10-6.7-17.3c0-7.1,2.6-14.3,7.9-19.4c5.4-5.3,13.5-8.4,22.6-8.4C104.1,29.5,111.9,32.2,116.7,37.1z M103,64.9
		c2.8-2.6,4.1-6.7,4.1-10.5c0-3.7-1.4-6.7-3.3-8.5c-2.1-2-5.6-3.1-8.6-3.1c-3,0-6.3,1.1-8.8,3.4c-3,2.6-4.4,6.7-4.4,10.5
		c0,3.4,1.3,6.4,3.2,8.4c1.5,1.7,4.3,3.3,8.6,3.3C97.7,68.4,100.9,66.9,103,64.9z"/>
	<path d="M156.5,0l-9.9,80.2h-15.8L140.7,0H156.5z"/>
	<path d="M185.6,0l-9.9,80.2h-15.8L169.7,0H185.6z"/>
	<path d="M204.7,58.7c-0.1,2.4,0.7,5.5,2,7.4c2.1,2.9,5.1,3.4,7.6,3.4c1.9,0,4.3-0.1,6.3-1.4c1.4-1,2.8-2.9,3.4-4.4l15.9,1.3
		c-2,5-5.4,9.6-8.9,12.2c-5.6,4.2-12.3,4.6-16.8,4.6c-6.1,0-13.3-0.8-19.1-6.6c-4.7-4.7-6.2-10.6-6.2-17.2c0-10.8,4.4-17.9,8.5-21.8
		c5.9-5.6,13.3-6.8,19.5-6.8c8.4,0,14.6,2.6,18.4,6.3c6.6,6.5,6.8,17.2,6.2,23H204.7z M226.2,49.1c-0.2-2.3-1.4-4.9-3.2-6.4
		c-1.8-1.4-4.5-2-6.5-2c-3.8,0-6.2,1.6-7.5,3c-1.2,1.3-2.3,3.2-2.8,5.4H226.2z"/>
	<path d="M254.1,31.1h15.8l-1.4,7.3c1.5-3.1,3.9-5.2,6.2-6.5c3.1-1.7,6.5-2,8.2-2c2.6,0,4.8,0.3,6.5,0.8l-3.1,14.7
		c-1.5-0.8-3.9-1.6-6.9-1.6c-4,0-6.6,1.5-8.1,3c-2.8,2.6-4.1,7.3-4.7,12.5l-2.6,20.9H248L254.1,31.1z"/>
</g>
</svg>
