<?xml version="1.0" encoding="utf-8"?>
<!-- Generator: Adobe Illustrator 20.1.0, SVG Export Plug-In . SVG Version: 6.00 Build 0)  -->
<svg version="1.1" id="Layer_1" xmlns="http://www.w3.org/2000/svg" xmlns:xlink="http://www.w3.org/1999/xlink" x="0px" y="0px"
	 viewBox="0 0 821.1 925.9" style="enable-background:new 0 0 821.1 925.9;" xml:space="preserve">
<style type="text/css">
	.st0{fill:#FFFFFF;}
</style>
<g id="_x39_WA8cU.tif">
	<g>
		<path class="st0" d="M368,683.1c-0.5,0.4-1,0.8-1.4,1.2c4.4,6.5,8,13.7,13.3,19.4c7.4,8,15.9,15.1,24.2,22.2
			c15.5,13.3,33.3,22.4,53.4,26.8c1.7,0.4,3.7,0.4,5.4,0c5.2-1.4,10.2-3.2,15.4-4.8c3.2-1,6.5-2.1,9.7-3.1c1.4-0.4,2.8-0.5,4.3-0.8
			c2.2-0.4,4.5-0.5,6.5-1.4c7.5-3.4,14.8-7.4,22.5-10.5c3.9-1.6,8.4-2,12.6-2.3c4-0.3,12.2,5.6,12.2,9.5c0,2.5-3,5.3-5.1,7.6
			c-5,5.6-10.4,10.8-15.3,16.4c-1.4,1.6-2.6,4.5-2.1,6.2c2.5,7.5,15.6,13.2,23,10.1c3.5-1.5,6.9-3.5,9.7-5.9
			c8-6.8,15.6-14,23.5-20.9c15.5-13.6,31-27.1,46.8-40.8c4,6.7,7.9,13.3,11.6,19.4c6.1-10.8,12-21.5,18-32.1c0.8,0.3,1.6,0.6,2.4,1
			c-6.7,30.3-13.4,60.7-20.1,91.1c4.7,0.1,6.1-0.9,8.3-5.4c0.8-1.6,1.4-3.4,2.4-4.9c3.8-5.9,7.8-11.8,11.7-17.6
			c0.9-1.3,1.5-3.2,2.7-3.9c5-2.8,7.3-7.3,8.4-12.4c1.8-8.1,3-16.3,4.6-24.5c4.3-21.9,11.2-42.8,24-61.3
			c11.7-17.1,23.7-34.1,36.2-50.6c8.9-11.7,18.8-22.6,28.3-33.9c0.7,2,0.4,3.6,0.1,5.1c-5.3,23.3-10.9,46.6-15.8,70
			c-2.6,12.5-4.6,25.2-5.9,37.8c-1.6,16.3-2.1,32.8-3.2,49.2c-0.4,6.1,0,11.9,5.5,17.1c0.7-1.1,1.3-1.9,1.8-2.8
			c0.4-0.7,0.9-1.4,1.1-2.2c5.7-19.8,11.9-39.4,16.9-59.3c3.4-13.6,7.7-26.5,15.6-38c5.2-7.5,14.1-10,22.3-6.1
			c6.1,3,12.1,6.3,17.8,9.3c0-46.3,0-93.2,0-140c-12.9-3-25.7-4.2-38.4-1.7c-18.1,3.5-36.2,7-54.1,11.5
			c-12.9,3.2-25.5,7.9-38.6,12.1c-0.7-5.1-2.9-9.9-9.1-12.2c-20.4-7.6-41.5-10.2-62.8-9.9c-1.4-7.8-2.7-15.5-4.2-23.1
			c-1.8-8.9-1.6-9.4,6.1-14.3c7.2-4.5,14.1-9.4,18.4-17.1c4.4-7.8,8.8-15.7,12.6-23.8c8.1-17.3,10.2-36,12.2-54.7
			c1.1-10.8,0.9-21.6-7.3-30.4c-5.1-5.4-9.5-11.5-15-16.6c-3-2.8-3.8-4.8-2.9-8.8c3.1-14.4,7.8-29,7.8-43.5
			c0-24.9-2.6-49.8-5.1-74.6c-2.1-20.5-10.1-39.3-21.8-56.2c-14.5-21.1-31.7-39.8-52.2-55.2c-11.7-8.7-24-16.7-39.2-18
			c-3.8-0.3-5.2-2.1-5.6-5.5c-0.7-6.1-2.2-12.2-2.4-18.3c-0.4-12.8-10.6-18-18.3-25.4c1.1,9.5,2.4,18.7,0.6,27.9
			c-0.6,0.2-1.1,0.4-1.7,0.5c-7.4-14.7-14.8-29.4-22.2-44.1c-5.3,10.9-10.7,12.1-19.8,3.8c-3.9-3.6-6.9-8-10.3-12.1
			c-1.4-1.7-2.5-2.6-5.4-1.9c-4.3,1.1-9.1,1.7-13.5,1.1c-6.4-0.8-12.2-0.3-17.9,2.6c-2,1-4.3,1.7-6.5,2c-8,1.2-14.2-3-19.9-7.6
			c-4.5-3.6-8.9-4-14.3-2.8c-6.9,1.6-14,2.9-21,3.3c-4.2,0.3-8.4-1.6-12.7-1.8c-11.3-0.6-20.5,4.4-29.1,11.1c-5.8,4.6-11.3,9-20,7.8
			c-7.9-1.1-16.4-1.4-22.9,5.5c-0.6,0.6-2.6,0.1-4-0.2c-2.4-0.4-5.1-2-7.1-1.4c-7.9,2.5-15.3,7-23.3,8.3
			c-17.7,2.8-32.3,11.1-45.1,22.8c-4.8,4.4-8.5,9.9-12.7,14.9c0.3,0.4,0.7,0.8,1,1.2c4.4-4.4,8.9-8.5,15.8-8.2
			c-3.2,2.8-6.4,5.2-9.1,8c-7.7,7.8-14.3,16.5-17.7,27.1c-2,6.1-3,12.7-5.7,18.4c-8.1,16.9-16.4,33.7-25.3,50.1
			c-5.9,10.8-10.9,21.6-11.2,34.2c-0.3,9,2.6,16.1,9.9,21.3c8.4,6,14.6,13.6,15.4,24.3c0.3,4.3,2.7,6.2,5.9,8.4
			c5.3,3.5,10.6,7.4,15.1,11.9c4.9,4.8,4.4,11.2,0.3,16.7c-4,5.3-7.8,10.9-12.1,17c3.7,0.7,5.9,1.1,8.3,1.5c0.2,1.1,0.5,2.3,0.7,3.4
			c0.2,1,0.4,2,0.4,3c1.5,21.1,8,40.6,19.1,58.7c10.2,16.7,21,33.2,25.4,52.8c0.4,1.7,1.4,3.3,2.2,5c1.1-1.2,1.5-2.2,1.4-3.1
			c-0.5-8.1-1.2-16.2-1.7-24.4c-0.1-1.9-0.1-4.3,1-5.6c7.7-8.9,16.9-16.3,29.4-15.3c12.7,1,25.3,3.6,37.9,5.4
			c4.3,0.6,8.6,1.2,12.9,1.8c-10.7,3.6-21.5,6.1-32.3,8.7c-7.7,1.8-15.4,3.6-16.2,13.7c-0.1,1.7-1.4,3.4-1.9,5.1
			c-0.9,2.8-1.6,5.5-2.6,9c12.6-1.9,20.3-9.8,28.2-17.5c3.4,6.9,8.2,11.6,15.8,10.4c4.8-0.8,9.8-2.3,13.8-5
			c5.7-3.9,10.4-9.4,18.7-0.9c-3.3-9.7,3.4-6.4,6.7-7.9c-4.5-5.2-8.8-10-12.3-14.1c2.3-2.4,4.7-3.8,5.5-5.8c2.6-7.2,0.6-10.6-8-13.1
			c-15.6-4.6-31.4-8.2-47.9-8.5c-16.3-0.3-30.1,3.8-40.8,16.6c-3.1,3.7-6.2,7.2-9.7,11.3c-0.5-2.1-0.9-3.2-1.1-4.4
			c-3.4-22.5-7.2-45-10.1-67.6c-1.8-14-3.5-28.2-2.7-42.2c0.9-17.2,6.6-32.9,24-41.3c12.9-6.2,26-11.7,40.6-10.2
			c18.2,1.9,36.2,4.8,54.3,7.2c9.6,1.3,19.3,3,28.5-0.7c5.2-2.1,9.8-6.2,14.2-9.9c14.9-12.4,31-22.4,50.9-24.3
			c5.8-0.5,11.6-1,17.4-0.9c15.1,0.3,30.3,0.9,45.4,1.5c5.3,0.2,8.8,3.9,11.5,8c3,4.5,6,9.3,7.7,14.4c3.9,11.8,8,23.6,10.3,35.8
			c4,21.1,3,42.5,1.7,63.7c-0.1,1.2-2,2.9-3.2,3.2c-12.1,2.3-24.2,4-36.3,6.4c-17.4,3.4-33.6,10.4-49.6,17.6
			c-16.1,7.3-26.7,19.1-32.2,35.9c-3.2,9.7-3.9,19.4-4.2,29.4c-0.5,18.5,1.6,36.5,7.4,54c3.4,10.4,4.3,20-4.4,28.5
			c-6.5,6.3-12.8,12.5-22.5,13.5c-7.3,0.7-14.7,1.8-22.5,2.7c0.3,1.1,0.7,2.7,1.1,4.3c3.8-0.3,7.2-0.1,10.4-0.8
			c6.1-1.5,10,1.8,13.2,5.8c9.2,11.1,21.1,16.5,35,15.2c14.2-1.3,27.6-6.6,39-15.4c5.2-4,8.3-9.2,7.9-16.7c-0.8-15.4-9.4-27-18.2-38
			c-12.6-15.6-20.5-32.6-20.4-52.8c0-8,2.4-15.4,7-22c0.7-0.9,2.4-1.9,3.4-1.6c0.9,0.2,1.8,1.8,2.2,3c0.7,2.4,1.1,4.9,1.8,7.9
			c15.1-17.6,15.1-17.6,29.1-22.8c2.8,7.2,6.4,13.8,14.9,15c7.8,1.1,14.7-2,20.8-7.1c0.3,0.3,0.6,0.6,0.9,0.9
			c-1.5,3.6-2.9,7.2-4.4,10.8c0.6,0.3,1,0.8,1.4,0.8c13.8,0.2,27.7,1.1,41-3.2c4.6-1.5,8.9-4.4,13.2-6.9c4-2.3,7.5-1.7,10.9,1.3
			c4.7,4.2,6.7,10.9,4.4,17.2c-4.5,12.6-13.1,22.7-20.8,33.3c-1.5,2.1-3.5,4.2-4.2,6.7c-4.8,15-9.9,30-13.7,45.3
			c-3.6,14.3-6.2,28.8-19.9,37.6c-0.6,0.4-1.1,1.3-1.2,2.1c-0.7,8.6-1.2,17.2-1.9,26.1c3.9-3.7,7.2-7.2,10.9-10.1
			c1.5-1.1,4.4-1.5,6.3-0.9c7.3,2.3,9,6.3,6,13.4c-4,10-8.1,19.9-12.6,29.7c-1.7,3.7-4.1,7.4-7.1,10c-8.9,7.7-19.5,6.4-29.8,3.9
			c-4.2-1-5.2-5.5-2.9-9.4c2.2-3.7,4.8-7.2,7.1-10.9c7.4-12.1,12.2-25.1,13.8-39.2c0.5-4.6-1.3-6.7-5.4-6.1
			c-4.2,0.6-8.4,1.6-10.7,2.1c-2.5,4.7-3.7,8.5-6.2,11.3c-2.8,3.2-6.3,5.9-10,8c-5.3,3-10.8,5.1-17.2,5.7c-10,0.8-20,2.8-29.7,5.5
			c-8.3,2.3-16.1,6.2-24,9.5c-14,5.8-28.8,5.7-43.5,6.2c-0.9,0-1.8,0.3-2.7,0.4c16.5,1.6,32.9,3.1,49.3,2.6
			c16.4-0.5,32.8-2.8,49.6-4.4c-16.6,21-39.7,28.9-65.2,32.5c4.7,1.8,9.4,3.3,14.2,3.9c17.5,2.2,34.8,1,51.8-3.9
			c6.6-1.9,13-0.9,17.7,3.7c4.6,4.6,8.8,10,11.7,15.8c2.8,5.5-2.3,14.4-9.7,19c-13,8.1-26.9,14.1-41.9,16.6
			c-13.8,2.4-27.8,3.4-41.5,4.9c35.4,18.5,73.9,30.6,112,43.8c-4.8,16.5-17.9,23.3-33.6,16.5c-11.6-5-23.1-10.3-34-16.6
			c-14.1-8.1-27.7-17.3-38-30.4C370.6,684.9,369.2,684.1,368,683.1z M0,925.5c180.5,0,360.7,0,541.1,0c0.2-1.2,0.5-2.1,0.5-3.1
			c-0.6-8.4-1.8-16.7-1.8-25c0-29.1,0.3-58.2,0.9-87.3c0.1-5.5-0.8-9.8-5.4-13.2c-2.8-2.1-5-4.8-7.5-7.3
			c-10.9-10.7-21.8-21.5-32.8-32.2c-1.6-1.6-3.7-3.7-5.6-3.8c-4.6-0.3-9.4,0-14,0.8c-5.5,1-10.8,2.6-16.2,4.2
			c-1.2,0.3-2.6,1.2-3.1,2.2c-2,3.6-4.6,7.3-5.2,11.2c-2.5,15.4-4.7,30.9-6.2,46.4c-1,10.7-1.6,21.1-8.3,30.2
			c-4.7,6.4-8.2,13.7-12.5,20.4c-2.7,4.2-5.9,8.1-9.7,13.3c-0.2-2.3-0.3-3.1-0.3-3.8c0-20.3-0.1-40.6-3.3-60.7
			c-2.3-14.8-3.8-29.7-9.9-43.6c-8.3-18.8-16.8-37.6-25.3-56.3c-2.9-6.2-6.2-12.2-10-19.6c-0.8,1.5-1,2.2-1.4,2.7
			c-5.8,7.7-11.3,15.6-17.5,22.9c-4.9,5.8-11.5,8.7-19.4,8.4c-12.7-0.4-24.9-2.5-35.4-10.1c-14.4-10.5-30.5-12.1-47.4-9.9
			c-9.8,1.3-10.2,1.6-12.3,11c-1.2,5.4-3.2,6.7-8.7,5.4c-1.9-0.5-3.7-1.2-5.3-1.7c-5.9,8.3-11.6,16.5-17.3,24.6
			c4.3,3.5,9.3,7.6,14.8,12c-15.2,4.5-29.6,8.8-44.4,13.2c3.1-7.2,5.7-15.1,9.7-22.3c9.5-17.3,21.6-32.7,36.4-46
			c18.5-16.7,37.1-33.4,55.4-50.3c8.6-8,18.8-10.6,30.2-10.6c6.1,0,12.1-0.8,19.7-1.3c-3-2.6-4.7-4.7-6.9-5.9
			c-15.5-8.7-27.8-21-38.3-35.1c-3.3-4.5-4.9-10.3-7.4-15.8c-6,2.6-13.7,4.9-20.3,9c-15.8,9.6-31.3,19.8-46.6,30.2
			c-17.1,11.7-29.4,28.1-41.4,44.6c-9.1,12.4-16.9,25.8-25.6,38.5c-9.4,13.9-19.6,27.2-28.6,41.4c-11.4,17.9-22,36.3-32.7,54.6
			c-6.7,11.4-13.2,23.1-19.7,34.6c-0.6,1-0.8,2.3-1.5,4.5c11.8-3.8,22.6-7.3,33.3-10.8c0.3,0.4,0.6,0.7,0.9,1.1
			c-1.8,2-3.6,3.9-5.2,6.1c-0.7,1-1.6,2.9-1.2,3.5c2.5,3.5,0.3,5.3-2.3,6.7c-5.4,2.9-10.9,5.7-16.5,8.2
			C46.3,869,31.5,878,20.9,892.1c-7.5,9.9-13.7,20.8-20.4,31.2C0.2,923.8,0.2,924.6,0,925.5z M698.5,925.8
			C698.5,925.7,698.5,925.7,698.5,925.8c7.2,0,14.3,0,21.5-0.1c4.5,0,5-1.5,4.2-6c-1.4-8.3-2.8-16.7-2.7-25.1
			c0-12.3,1.2-24.6,2.1-36.9c0.9-12.1,1.6-24.2,7.8-35.2c2.5-4.4,4.6-9.5,4.9-14.4c0.7-12.9-3-25.3-7.1-37.5c-0.5-1.4-2.5-2.8-4-3.2
			c-0.9-0.2-2.5,1.5-3.4,2.7c-2.5,3.1-5,6.2-7.2,9.6c-8.9,13.6-19.3,26.5-26,41.1c-11.7,25.7-14.9,53.7-16.8,81.7
			c-0.4,6.1-0.1,12.3,0,18.4c0.1,3.6,1.7,5.1,5.6,4.9C684.5,925.5,691.5,925.8,698.5,925.8z M621.4,925.6c8.5,0,17.3,0,25.9,0
			c3.5-41.2,7-82.2,10.6-124c-0.9,2-1.5,3.5-2.3,4.9c-4.1,6.5-6.9,14.1-15.7,16.4c-8.2,2.1-11.8,7-12.2,15.6
			c-0.1,3.5-0.1,7-0.8,10.4c-1.7,9.4-4.8,18.8-5.4,28.3C620.7,893.1,621.4,909.2,621.4,925.6z"/>
		<path d="M368,683.1c1.2,1,2.6,1.7,3.5,2.9c10.3,13.1,23.8,22.2,38,30.4c10.9,6.3,22.4,11.6,34,16.6c15.7,6.8,28.8,0,33.6-16.5
			c-38.1-13.2-76.6-25.3-112-43.8c13.7-1.6,27.7-2.6,41.5-4.9c15-2.6,29-8.5,41.9-16.6c7.4-4.6,12.5-13.5,9.7-19
			c-2.9-5.8-7.1-11.2-11.7-15.8c-4.7-4.7-11.1-5.6-17.7-3.7c-17,4.9-34.3,6.1-51.8,3.9c-4.8-0.6-9.5-2.1-14.2-3.9
			c25.5-3.6,48.6-11.5,65.2-32.5c-16.7,1.5-33.1,3.9-49.6,4.4c-16.4,0.5-32.8-1-49.3-2.6c0.9-0.1,1.8-0.4,2.7-0.4
			c14.7-0.5,29.5-0.4,43.5-6.2c8-3.3,15.8-7.2,24-9.5c9.7-2.7,19.7-4.6,29.7-5.5c6.5-0.5,11.9-2.7,17.2-5.7c3.7-2.1,7.3-4.8,10-8
			c2.4-2.8,3.7-6.6,6.2-11.3c2.3-0.5,6.5-1.4,10.7-2.1c4.1-0.6,5.9,1.5,5.4,6.1c-1.6,14.1-6.3,27.2-13.8,39.2
			c-2.3,3.7-4.8,7.2-7.1,10.9c-2.4,3.9-1.3,8.4,2.9,9.4c10.3,2.5,20.9,3.8,29.8-3.9c3-2.6,5.4-6.3,7.1-10
			c4.5-9.8,8.5-19.7,12.6-29.7c2.9-7.2,1.2-11.2-6-13.4c-1.9-0.6-4.8-0.2-6.3,0.9c-3.8,2.9-7.1,6.4-10.9,10.1
			c0.6-8.9,1.2-17.5,1.9-26.1c0.1-0.7,0.6-1.7,1.2-2.1c13.8-8.8,16.3-23.3,19.9-37.6c3.9-15.3,9-30.3,13.7-45.3
			c0.8-2.4,2.7-4.5,4.2-6.7c7.7-10.7,16.2-20.7,20.8-33.3c2.3-6.3,0.3-13-4.4-17.2c-3.4-3.1-6.8-3.6-10.9-1.3
			c-4.3,2.4-8.5,5.3-13.2,6.9c-13.3,4.3-27.2,3.5-41,3.2c-0.4,0-0.8-0.4-1.4-0.8c1.5-3.6,2.9-7.2,4.4-10.8c-0.3-0.3-0.6-0.6-0.9-0.9
			c-6.1,5.2-12.9,8.3-20.8,7.1c-8.5-1.2-12.1-7.8-14.9-15c-13.9,5.2-13.9,5.2-29.1,22.8c-0.6-3-1-5.5-1.8-7.9
			c-0.4-1.2-1.3-2.8-2.2-3c-0.9-0.2-2.7,0.7-3.4,1.6c-4.6,6.6-7,14-7,22c-0.1,20.2,7.8,37.2,20.4,52.8c8.8,11,17.5,22.6,18.2,38
			c0.4,7.5-2.8,12.7-7.9,16.7c-11.5,8.8-24.8,14-39,15.4c-13.9,1.3-25.9-4.1-35-15.2c-3.3-3.9-7.1-7.3-13.2-5.8
			c-3.2,0.8-6.6,0.6-10.4,0.8c-0.4-1.6-0.8-3.2-1.1-4.3c7.8-1,15.1-2,22.5-2.7c9.7-1,16-7.2,22.5-13.5c8.7-8.5,7.8-18.1,4.4-28.5
			c-5.8-17.5-7.9-35.5-7.4-54c0.3-10,1-19.8,4.2-29.4c5.5-16.8,16.1-28.7,32.2-35.9c16.1-7.2,32.3-14.2,49.6-17.6
			c12-2.4,24.2-4.1,36.3-6.4c1.3-0.2,3.2-2,3.2-3.2c1.3-21.3,2.3-42.7-1.7-63.7c-2.3-12.1-6.4-24-10.3-35.8
			c-1.7-5.1-4.7-9.8-7.7-14.4c-2.6-4.1-6.1-7.8-11.5-8c-15.1-0.7-30.2-1.2-45.4-1.5c-5.8-0.1-11.6,0.4-17.4,0.9
			c-19.9,1.9-35.9,11.9-50.9,24.3c-4.4,3.7-9,7.8-14.2,9.9c-9.2,3.7-18.9,2-28.5,0.7c-18.1-2.5-36.2-5.3-54.3-7.2
			c-14.6-1.5-27.7,4-40.6,10.2c-17.4,8.4-23.1,24.1-24,41.3c-0.8,14,1,28.2,2.7,42.2c2.9,22.6,6.7,45.1,10.1,67.6
			c0.2,1.1,0.6,2.2,1.1,4.4c3.5-4.1,6.7-7.7,9.7-11.3c10.7-12.7,24.5-16.9,40.8-16.6c16.5,0.3,32.3,4,47.9,8.5
			c8.6,2.5,10.6,5.9,8,13.1c-0.7,2-3.2,3.4-5.5,5.8c3.6,4.1,7.8,8.9,12.3,14.1c-3.3,1.5-9.9-1.8-6.7,7.9c-8.4-8.5-13.1-3-18.7,0.9
			c-3.9,2.7-9,4.2-13.8,5c-7.6,1.2-12.4-3.5-15.8-10.4c-8,7.7-15.6,15.6-28.2,17.5c1-3.5,1.7-6.3,2.6-9c0.5-1.7,1.8-3.4,1.9-5.1
			c0.9-10.1,8.5-11.8,16.2-13.7c10.8-2.6,21.5-5.1,32.3-8.7c-4.3-0.6-8.6-1.2-12.9-1.8c-12.6-1.9-25.2-4.4-37.9-5.4
			c-12.5-1-21.6,6.4-29.4,15.3c-1.1,1.2-1.1,3.7-1,5.6c0.4,8.1,1.1,16.2,1.7,24.4c0.1,0.9-0.3,1.9-1.4,3.1c-0.7-1.7-1.8-3.3-2.2-5
			c-4.4-19.5-15.2-36.1-25.4-52.8c-11.1-18.1-17.5-37.5-19.1-58.7c-0.1-1-0.2-2-0.4-3c-0.2-1.1-0.5-2.2-0.7-3.4
			c-2.4-0.4-4.6-0.8-8.3-1.5c4.4-6.1,8.1-11.7,12.1-17c4.1-5.4,4.5-11.9-0.3-16.7c-4.5-4.5-9.8-8.3-15.1-11.9
			c-3.2-2.2-5.6-4-5.9-8.4c-0.8-10.7-7-18.3-15.4-24.3c-7.3-5.2-10.2-12.3-9.9-21.3c0.4-12.6,5.3-23.4,11.2-34.2
			c8.9-16.4,17.3-33.2,25.3-50.1c2.7-5.7,3.8-12.3,5.7-18.4c3.4-10.6,10-19.3,17.7-27.1c2.7-2.8,5.9-5.2,9.1-8
			c-6.9-0.3-11.4,3.9-15.8,8.2c-0.3-0.4-0.7-0.8-1-1.2c4.2-5,7.9-10.6,12.7-14.9c12.9-11.7,27.4-20,45.1-22.8
			c8-1.3,15.4-5.8,23.3-8.3c2-0.6,4.7,1,7.1,1.4c1.3,0.2,3.4,0.8,4,0.2c6.5-6.9,15-6.6,22.9-5.5c8.7,1.2,14.2-3.2,20-7.8
			c8.5-6.8,17.8-11.7,29.1-11.1c4.3,0.2,8.5,2.1,12.7,1.8c7.1-0.5,14.1-1.7,21-3.3c5.4-1.3,9.9-0.9,14.3,2.8
			c5.7,4.6,11.9,8.8,19.9,7.6c2.2-0.3,4.5-1,6.5-2c5.7-2.9,11.5-3.4,17.9-2.6c4.4,0.6,9.2,0,13.5-1.1c2.8-0.7,3.9,0.2,5.4,1.9
			c3.4,4.1,6.5,8.5,10.3,12.1c9,8.3,14.5,7.1,19.8-3.8c7.4,14.7,14.8,29.4,22.2,44.1c0.6-0.2,1.1-0.4,1.7-0.5
			c1.9-9.2,0.5-18.4-0.6-27.9c7.7,7.4,17.9,12.6,18.3,25.4c0.2,6.1,1.7,12.2,2.4,18.3c0.4,3.5,1.8,5.2,5.6,5.5
			c15.2,1.3,27.5,9.2,39.2,18c20.6,15.3,37.7,34.1,52.2,55.2c11.6,16.9,19.7,35.7,21.8,56.2c2.5,24.8,5.1,49.7,5.1,74.6
			c0,14.5-4.7,29-7.8,43.5c-0.9,4-0.2,6,2.9,8.8c5.5,5,9.9,11.1,15,16.6c8.2,8.8,8.4,19.6,7.3,30.4c-2,18.7-4.1,37.4-12.2,54.7
			c-3.8,8.1-8.2,15.9-12.6,23.8c-4.3,7.6-11.2,12.5-18.4,17.1c-7.7,4.9-7.9,5.4-6.1,14.3c1.5,7.6,2.8,15.3,4.2,23.1
			c21.3-0.3,42.4,2.3,62.8,9.9c6.2,2.3,8.4,7.1,9.1,12.2c13.1-4.2,25.7-8.9,38.6-12.1c17.9-4.4,36-7.9,54.1-11.5
			c12.7-2.5,25.5-1.2,38.4,1.7c0,46.8,0,93.8,0,140c-5.7-3-11.6-6.4-17.8-9.3c-8.2-3.9-17.1-1.4-22.3,6.1
			c-7.9,11.6-12.3,24.5-15.6,38c-4.9,19.9-11.2,39.6-16.9,59.3c-0.2,0.8-0.7,1.5-1.1,2.2c-0.5,0.9-1.1,1.7-1.8,2.8
			c-5.5-5.2-5.9-10.9-5.5-17.1c1.1-16.4,1.6-32.8,3.2-49.2c1.2-12.7,3.2-25.4,5.9-37.8c4.9-23.4,10.5-46.7,15.8-70
			c0.4-1.5,0.6-3.1-0.1-5.1c-9.5,11.3-19.4,22.2-28.3,33.9c-12.5,16.5-24.5,33.5-36.2,50.6c-12.7,18.5-19.6,39.4-24,61.3
			c-1.6,8.1-2.8,16.4-4.6,24.5c-1.1,5.1-3.5,9.6-8.4,12.4c-1.2,0.7-1.8,2.6-2.7,3.9c-3.9,5.9-7.9,11.7-11.7,17.6
			c-1,1.5-1.6,3.2-2.4,4.9c-2.1,4.6-3.6,5.6-8.3,5.4c6.7-30.4,13.4-60.8,20.1-91.1c-0.8-0.3-1.6-0.6-2.4-1
			c-6,10.7-11.9,21.3-18,32.1c-3.6-6.1-7.5-12.7-11.6-19.4c-15.7,13.7-31.3,27.3-46.8,40.8c-7.9,6.9-15.5,14.1-23.5,20.9
			c-2.9,2.4-6.3,4.4-9.7,5.9c-7.4,3.1-20.5-2.5-23-10.1c-0.6-1.7,0.7-4.6,2.1-6.2c4.9-5.6,10.3-10.9,15.3-16.4
			c2.1-2.3,5.1-5,5.1-7.6c0-3.9-8.1-9.8-12.2-9.5c-4.3,0.3-8.7,0.7-12.6,2.3c-7.7,3.1-14.9,7.1-22.5,10.5c-2,0.9-4.3,0.9-6.5,1.4
			c-1.4,0.3-2.9,0.4-4.3,0.8c-3.3,1-6.5,2-9.7,3.1c-5.1,1.6-10.2,3.4-15.4,4.8c-1.7,0.5-3.7,0.4-5.4,0
			c-20.1-4.3-37.8-13.4-53.4-26.8c-8.3-7.1-16.8-14.2-24.2-22.2c-5.3-5.7-8.9-12.8-13.3-19.4C367,683.9,367.5,683.5,368,683.1z"/>
		<path d="M0,925.5c0.2-0.9,0.2-1.7,0.5-2.2c6.7-10.5,12.9-21.3,20.4-31.2C31.5,878,46.3,869,62.2,861.7c5.6-2.5,11.1-5.3,16.5-8.2
			c2.6-1.4,4.8-3.2,2.3-6.7c-0.4-0.6,0.4-2.5,1.2-3.5c1.6-2.1,3.4-4.1,5.2-6.1c-0.3-0.4-0.6-0.7-0.9-1.1
			c-10.7,3.5-21.5,6.9-33.3,10.8c0.7-2.2,0.9-3.5,1.5-4.5c6.5-11.6,13-23.2,19.7-34.6c10.8-18.3,21.4-36.7,32.7-54.6
			c9-14.1,19.2-27.5,28.6-41.4c8.7-12.8,16.5-26.1,25.6-38.5c12-16.4,24.3-32.9,41.4-44.6c15.3-10.4,30.8-20.6,46.6-30.2
			c6.6-4,14.2-6.4,20.3-9c2.6,5.6,4.1,11.4,7.4,15.8c10.5,14.1,22.8,26.4,38.3,35.1c2.2,1.2,3.9,3.3,6.9,5.9
			c-7.5,0.5-13.6,1.3-19.7,1.3c-11.4,0.1-21.5,2.6-30.2,10.6c-18.3,16.9-36.8,33.6-55.4,50.3c-14.7,13.3-26.9,28.7-36.4,46
			c-4,7.2-6.6,15.1-9.7,22.3c14.8-4.4,29.2-8.7,44.4-13.2c-5.4-4.4-10.5-8.5-14.8-12c5.7-8,11.5-16.3,17.3-24.6
			c1.6,0.5,3.4,1.3,5.3,1.7c5.5,1.3,7.5,0,8.7-5.4c2.1-9.4,2.5-9.8,12.3-11c16.9-2.2,33-0.7,47.4,9.9c10.5,7.6,22.7,9.7,35.4,10.1
			c7.9,0.3,14.5-2.6,19.4-8.4c6.2-7.3,11.7-15.3,17.5-22.9c0.4-0.5,0.6-1.2,1.4-2.7c3.8,7.3,7.1,13.3,10,19.6
			c8.6,18.7,17,37.5,25.3,56.3c6.1,13.9,7.6,28.8,9.9,43.6c3.2,20.1,3.3,40.4,3.3,60.7c0,0.8,0.1,1.5,0.3,3.8
			c3.8-5.1,7-9.1,9.7-13.3c4.3-6.7,7.8-14,12.5-20.4c6.7-9.2,7.3-19.6,8.3-30.2c1.5-15.5,3.7-31,6.2-46.4c0.6-3.9,3.3-7.6,5.2-11.2
			c0.6-1,2-1.9,3.1-2.2c5.4-1.5,10.7-3.2,16.2-4.2c4.6-0.8,9.4-1.1,14-0.8c2,0.1,4,2.2,5.6,3.8c11,10.7,21.9,21.4,32.8,32.2
			c2.5,2.4,4.7,5.2,7.5,7.3c4.6,3.4,5.5,7.7,5.4,13.2c-0.5,29.1-0.8,58.2-0.9,87.3c0,8.3,1.2,16.7,1.8,25c0.1,0.9-0.3,1.9-0.5,3.1
			C360.7,925.5,180.5,925.5,0,925.5z"/>
		<path d="M698.5,925.8c-7,0-14-0.3-21,0.1c-3.9,0.2-5.6-1.3-5.6-4.9c-0.1-6.1-0.4-12.3,0-18.4c1.9-28,5.1-56,16.8-81.7
			c6.7-14.6,17.1-27.5,26-41.1c2.2-3.3,4.7-6.5,7.2-9.6c0.9-1.1,2.5-2.9,3.4-2.7c1.5,0.4,3.6,1.8,4,3.2c4,12.2,7.8,24.6,7.1,37.5
			c-0.3,4.9-2.4,10.1-4.9,14.4c-6.2,11-7,23.1-7.8,35.2c-0.9,12.3-2.1,24.6-2.1,36.9c0,8.4,1.4,16.8,2.7,25.1c0.7,4.4,0.2,5.9-4.2,6
			C712.9,925.8,705.7,925.7,698.5,925.8C698.5,925.7,698.5,925.7,698.5,925.8z"/>
		<path d="M621.4,925.6c0-16.4-0.7-32.5,0.2-48.5c0.5-9.5,3.6-18.8,5.4-28.3c0.6-3.4,0.6-6.9,0.8-10.4c0.4-8.6,3.9-13.5,12.2-15.6
			c8.7-2.2,11.6-9.8,15.7-16.4c0.8-1.3,1.4-2.9,2.3-4.9c-3.6,41.8-7.1,82.8-10.6,124C638.7,925.6,629.9,925.6,621.4,925.6z"/>
	</g>
</g>
</svg>
